<svg xmlns="http://www.w3.org/2000/svg" viewBox="0 0 256 256">
  <style>
    .logo {fill: #0A0A0A;}
    @media (prefers-color-scheme: dark) {.logo{fill: #FFFFFF;}}
  </style>
  <polygon
    points="128.02 83.46 154.77 0 145.45 87.17 203.66 21.88 159.89 97.73 239.47 61.88 168.82 113.25 256 113.07 170.67 131.09 250.43 166.58 165.16 148.16 223.67 213.18 153.23 161.5 180.35 244.8 136.91 168.77 128.02 256 119.09 168.77 75.65 244.8 102.8 161.5 32.36 213.18 90.84 148.16 5.6 166.58 85.33 131.09 0 113.07 87.21 113.25 16.53 61.88 96.11 97.73 52.34 21.88 110.55 87.17 101.26 0 128.02 83.46"
    class="logo" />
</svg>