<svg width="155" height="19" viewBox="0 0 155 19" fill="none" xmlns="http://www.w3.org/2000/svg">
    <path
        d="M0.44 18V1.2H3.368V15.072H10.364V18H0.44ZM11.5147 13.56V6H14.4427V12.792C14.4427 13.264 14.5587 13.696 14.7907 14.088C15.0227 14.472 15.3307 14.78 15.7147 15.012C16.1067 15.236 16.5347 15.348 16.9987 15.348C17.4787 15.348 17.9107 15.236 18.2947 15.012C18.6787 14.78 18.9867 14.472 19.2187 14.088C19.4507 13.696 19.5667 13.264 19.5667 12.792V6H22.4947L22.5067 18H19.5787L19.5667 16.908C19.1507 17.34 18.6587 17.684 18.0907 17.94C17.5227 18.188 16.9147 18.312 16.2667 18.312C15.3947 18.312 14.5987 18.1 13.8787 17.676C13.1587 17.244 12.5827 16.672 12.1507 15.96C11.7267 15.24 11.5147 14.44 11.5147 13.56ZM35.6951 18H32.3231L29.5871 13.284L27.9071 15.288V18H24.9791V-1.43051e-06H27.9071V10.74L31.8791 6H35.7071L31.5911 10.908L35.6951 18ZM45.863 6H48.791V18H45.863L45.731 16.512C45.403 17.048 44.967 17.484 44.423 17.82C43.887 18.148 43.251 18.312 42.515 18.312C41.627 18.312 40.795 18.144 40.019 17.808C39.243 17.472 38.559 17.008 37.967 16.416C37.383 15.824 36.923 15.14 36.587 14.364C36.259 13.588 36.095 12.756 36.095 11.868C36.095 11.012 36.251 10.208 36.563 9.456C36.883 8.704 37.327 8.044 37.895 7.476C38.463 6.908 39.119 6.464 39.863 6.144C40.607 5.824 41.407 5.664 42.263 5.664C43.055 5.664 43.763 5.84 44.387 6.192C45.019 6.544 45.555 6.992 45.995 7.536L45.863 6ZM42.443 15.492C43.067 15.492 43.619 15.336 44.099 15.024C44.579 14.712 44.955 14.292 45.227 13.764C45.499 13.228 45.635 12.64 45.635 12C45.635 11.352 45.499 10.764 45.227 10.236C44.955 9.7 44.575 9.276 44.087 8.964C43.607 8.652 43.059 8.496 42.443 8.496C41.827 8.496 41.263 8.656 40.751 8.976C40.247 9.288 39.843 9.708 39.539 10.236C39.243 10.764 39.095 11.352 39.095 12C39.095 12.648 39.247 13.236 39.551 13.764C39.855 14.292 40.259 14.712 40.763 15.024C41.275 15.336 41.835 15.492 42.443 15.492ZM41.975 4.68L42.935 1.224H45.863L43.919 4.68H41.975ZM54.7222 18.216C54.0982 18.176 53.4942 18.052 52.9102 17.844C52.3342 17.628 51.8222 17.336 51.3742 16.968C50.9262 16.6 50.5822 16.16 50.3422 15.648L52.8142 14.592C52.9102 14.752 53.0662 14.924 53.2822 15.108C53.4982 15.284 53.7542 15.432 54.0502 15.552C54.3542 15.672 54.6862 15.732 55.0462 15.732C55.3502 15.732 55.6382 15.692 55.9102 15.612C56.1902 15.524 56.4142 15.392 56.5822 15.216C56.7582 15.04 56.8462 14.812 56.8462 14.532C56.8462 14.236 56.7422 14.008 56.5342 13.848C56.3342 13.68 56.0782 13.556 55.7662 13.476C55.4622 13.388 55.1662 13.308 54.8782 13.236C54.1182 13.084 53.4102 12.848 52.7542 12.528C52.1062 12.208 51.5822 11.796 51.1822 11.292C50.7902 10.78 50.5942 10.164 50.5942 9.444C50.5942 8.652 50.8022 7.968 51.2182 7.392C51.6422 6.816 52.1902 6.372 52.8622 6.06C53.5422 5.748 54.2742 5.592 55.0582 5.592C56.0102 5.592 56.8822 5.792 57.6742 6.192C58.4742 6.584 59.1062 7.14 59.5702 7.86L57.2542 9.228C57.1422 9.036 56.9862 8.86 56.7862 8.7C56.5862 8.532 56.3582 8.396 56.1022 8.292C55.8462 8.18 55.5782 8.116 55.2982 8.1C54.9382 8.084 54.6102 8.116 54.3142 8.196C54.0182 8.276 53.7782 8.412 53.5942 8.604C53.4182 8.796 53.3302 9.052 53.3302 9.372C53.3302 9.676 53.4502 9.904 53.6902 10.056C53.9302 10.2 54.2182 10.312 54.5542 10.392C54.8982 10.472 55.2262 10.56 55.5382 10.656C56.2422 10.888 56.9022 11.172 57.5182 11.508C58.1422 11.844 58.6422 12.256 59.0182 12.744C59.3942 13.232 59.5742 13.816 59.5582 14.496C59.5582 15.272 59.3262 15.952 58.8622 16.536C58.3982 17.112 57.7982 17.552 57.0622 17.856C56.3342 18.16 55.5542 18.28 54.7222 18.216ZM53.3182 4.68L50.9902 1.224H52.9462L54.9502 3.54L56.9422 1.224H58.8982L56.6062 4.68H53.3182ZM67.3775 18V1.2H73.3775C74.2895 1.2 75.1135 1.428 75.8495 1.884C76.5935 2.34 77.1815 2.952 77.6135 3.72C78.0455 4.488 78.2615 5.332 78.2615 6.252C78.2615 7.196 78.0375 8.052 77.5895 8.82C77.1495 9.58 76.5575 10.188 75.8135 10.644C75.0695 11.092 74.2575 11.316 73.3775 11.316H70.3055V18H67.3775ZM70.3055 8.388H73.0655C73.4815 8.388 73.8615 8.284 74.2055 8.076C74.5495 7.868 74.8215 7.588 75.0215 7.236C75.2295 6.884 75.3335 6.492 75.3335 6.06C75.3335 5.62 75.2295 5.224 75.0215 4.872C74.8215 4.52 74.5495 4.24 74.2055 4.032C73.8615 3.824 73.4815 3.72 73.0655 3.72H70.3055V8.388ZM84.9153 18.312C83.8113 18.312 82.8033 18.028 81.8913 17.46C80.9873 16.892 80.2633 16.132 79.7193 15.18C79.1833 14.22 78.9153 13.16 78.9153 12C78.9153 11.12 79.0713 10.3 79.3833 9.54C79.6953 8.772 80.1233 8.1 80.6673 7.524C81.2193 6.94 81.8593 6.484 82.5873 6.156C83.3153 5.828 84.0913 5.664 84.9153 5.664C86.0193 5.664 87.0233 5.948 87.9273 6.516C88.8393 7.084 89.5633 7.848 90.0993 8.808C90.6433 9.768 90.9153 10.832 90.9153 12C90.9153 12.872 90.7593 13.688 90.4473 14.448C90.1353 15.208 89.7033 15.88 89.1513 16.464C88.6073 17.04 87.9713 17.492 87.2433 17.82C86.5233 18.148 85.7473 18.312 84.9153 18.312ZM84.9153 15.384C85.4993 15.384 86.0233 15.228 86.4873 14.916C86.9513 14.604 87.3153 14.192 87.5793 13.68C87.8513 13.168 87.9873 12.608 87.9873 12C87.9873 11.376 87.8473 10.808 87.5673 10.296C87.2953 9.776 86.9233 9.364 86.4513 9.06C85.9873 8.748 85.4753 8.592 84.9153 8.592C84.3393 8.592 83.8193 8.748 83.3553 9.06C82.8913 9.372 82.5233 9.788 82.2513 10.308C81.9793 10.828 81.8433 11.392 81.8433 12C81.8433 12.632 81.9833 13.204 82.2633 13.716C82.5433 14.228 82.9153 14.636 83.3793 14.94C83.8513 15.236 84.3633 15.384 84.9153 15.384ZM96.4175 18.216C95.7935 18.176 95.1895 18.052 94.6055 17.844C94.0295 17.628 93.5175 17.336 93.0695 16.968C92.6215 16.6 92.2775 16.16 92.0375 15.648L94.5095 14.592C94.6055 14.752 94.7615 14.924 94.9775 15.108C95.1935 15.284 95.4495 15.432 95.7455 15.552C96.0495 15.672 96.3815 15.732 96.7415 15.732C97.0455 15.732 97.3335 15.692 97.6055 15.612C97.8855 15.524 98.1095 15.392 98.2775 15.216C98.4535 15.04 98.5415 14.812 98.5415 14.532C98.5415 14.236 98.4375 14.008 98.2295 13.848C98.0295 13.68 97.7735 13.556 97.4615 13.476C97.1575 13.388 96.8615 13.308 96.5735 13.236C95.8135 13.084 95.1055 12.848 94.4495 12.528C93.8015 12.208 93.2775 11.796 92.8775 11.292C92.4855 10.78 92.2895 10.164 92.2895 9.444C92.2895 8.652 92.4975 7.968 92.9135 7.392C93.3375 6.816 93.8855 6.372 94.5575 6.06C95.2375 5.748 95.9695 5.592 96.7535 5.592C97.7055 5.592 98.5775 5.792 99.3695 6.192C100.17 6.584 100.802 7.14 101.266 7.86L98.9495 9.228C98.8375 9.036 98.6815 8.86 98.4815 8.7C98.2815 8.532 98.0535 8.396 97.7975 8.292C97.5415 8.18 97.2735 8.116 96.9935 8.1C96.6335 8.084 96.3055 8.116 96.0095 8.196C95.7135 8.276 95.4735 8.412 95.2895 8.604C95.1135 8.796 95.0255 9.052 95.0255 9.372C95.0255 9.676 95.1455 9.904 95.3855 10.056C95.6255 10.2 95.9135 10.312 96.2495 10.392C96.5935 10.472 96.9215 10.56 97.2335 10.656C97.9375 10.888 98.5975 11.172 99.2135 11.508C99.8375 11.844 100.338 12.256 100.714 12.744C101.09 13.232 101.27 13.816 101.254 14.496C101.254 15.272 101.022 15.952 100.558 16.536C100.094 17.112 99.4935 17.552 98.7575 17.856C98.0295 18.16 97.2495 18.28 96.4175 18.216ZM103.307 18V-1.43051e-06H106.235V18H103.307ZM114.212 18.312C113.108 18.312 112.1 18.028 111.188 17.46C110.284 16.892 109.56 16.128 109.016 15.168C108.48 14.208 108.212 13.148 108.212 11.988C108.212 11.116 108.368 10.3 108.68 9.54C108.992 8.772 109.42 8.1 109.964 7.524C110.516 6.94 111.156 6.484 111.884 6.156C112.612 5.828 113.388 5.664 114.212 5.664C115.148 5.664 116.004 5.864 116.78 6.264C117.564 6.656 118.228 7.196 118.772 7.884C119.316 8.572 119.712 9.356 119.96 10.236C120.208 11.116 120.264 12.036 120.128 12.996H111.356C111.468 13.444 111.652 13.848 111.908 14.208C112.164 14.56 112.488 14.844 112.88 15.06C113.272 15.268 113.716 15.376 114.212 15.384C114.724 15.392 115.188 15.272 115.604 15.024C116.028 14.768 116.38 14.424 116.66 13.992L119.648 14.688C119.16 15.752 118.432 16.624 117.464 17.304C116.496 17.976 115.412 18.312 114.212 18.312ZM111.26 10.8H117.164C117.076 10.32 116.888 9.888 116.6 9.504C116.32 9.112 115.972 8.8 115.556 8.568C115.14 8.336 114.692 8.22 114.212 8.22C113.732 8.22 113.288 8.336 112.88 8.568C112.472 8.792 112.124 9.1 111.836 9.492C111.556 9.876 111.364 10.312 111.26 10.8ZM131.2 -1.43051e-06H134.128V18H131.2V16.5C130.816 17.036 130.332 17.472 129.748 17.808C129.164 18.144 128.488 18.312 127.72 18.312C126.848 18.312 126.032 18.148 125.272 17.82C124.512 17.492 123.84 17.04 123.256 16.464C122.68 15.88 122.228 15.208 121.9 14.448C121.572 13.688 121.408 12.872 121.408 12C121.408 11.128 121.572 10.312 121.9 9.552C122.228 8.792 122.68 8.124 123.256 7.548C123.84 6.964 124.512 6.508 125.272 6.18C126.032 5.852 126.848 5.688 127.72 5.688C128.488 5.688 129.164 5.856 129.748 6.192C130.332 6.52 130.816 6.956 131.2 7.5V-1.43051e-06ZM127.756 15.492C128.38 15.492 128.932 15.336 129.412 15.024C129.892 14.712 130.268 14.292 130.54 13.764C130.812 13.228 130.948 12.64 130.948 12C130.948 11.352 130.812 10.764 130.54 10.236C130.268 9.7 129.888 9.276 129.4 8.964C128.92 8.652 128.372 8.496 127.756 8.496C127.14 8.496 126.576 8.656 126.064 8.976C125.56 9.288 125.156 9.708 124.852 10.236C124.556 10.764 124.408 11.352 124.408 12C124.408 12.648 124.56 13.236 124.864 13.764C125.168 14.292 125.572 14.712 126.076 15.024C126.588 15.336 127.148 15.492 127.756 15.492ZM148.002 10.416V18H145.074V11.184C145.074 10.712 144.958 10.284 144.726 9.9C144.494 9.508 144.182 9.2 143.79 8.976C143.406 8.744 142.978 8.628 142.506 8.628C142.034 8.628 141.602 8.744 141.21 8.976C140.826 9.2 140.518 9.508 140.286 9.9C140.062 10.284 139.95 10.712 139.95 11.184V18H137.022L137.01 6H139.938L139.95 7.068C140.358 6.636 140.846 6.296 141.414 6.048C141.982 5.792 142.594 5.664 143.25 5.664C144.122 5.664 144.918 5.88 145.638 6.312C146.358 6.736 146.93 7.308 147.354 8.028C147.786 8.74 148.002 9.536 148.002 10.416ZM150.393 6H153.321V18H150.393V6ZM151.101 4.68L152.061 1.224H154.989L153.045 4.68H151.101Z"
        fill="#0A0A0A" />
</svg>